<svg width="44" height="44" viewBox="0 0 44 44" fill="none" xmlns="http://www.w3.org/2000/svg">
<g filter="url(#filter0_i_4633_10153)">
<rect width="44" height="44" rx="6" fill="#6366F1"/>
<path d="M32 14.0293C29.3099 13.5938 27.3119 14.1084 26.0058 15.573C24.6998 17.0375 24.0468 19.1948 24.0468 22.0447V30.1196H32V22.0447H27.9064C27.692 20.6198 27.8869 19.462 28.4912 18.5714C29.115 17.6808 30.1287 17.2948 31.5322 17.4136L32 14.0293ZM19.9532 14.0293C17.2632 13.5938 15.2651 14.1084 13.9591 15.573C12.653 17.0375 12 19.1948 12 22.0447V30.1196H19.9532V22.0447H15.8596C15.6452 20.6198 15.8402 19.462 16.4444 18.5714C17.0682 17.6808 18.0819 17.2948 19.4854 17.4136L19.9532 14.0293Z" fill="white"/>
</g>
<defs>
<filter id="filter0_i_4633_10153" x="0" y="0" width="44" height="52" filterUnits="userSpaceOnUse" color-interpolation-filters="sRGB">
<feFlood flood-opacity="0" result="BackgroundImageFix"/>
<feBlend mode="normal" in="SourceGraphic" in2="BackgroundImageFix" result="shape"/>
<feColorMatrix in="SourceAlpha" type="matrix" values="0 0 0 0 0 0 0 0 0 0 0 0 0 0 0 0 0 0 127 0" result="hardAlpha"/>
<feMorphology radius="8" operator="dilate" in="SourceAlpha" result="effect1_innerShadow_4633_10153"/>
<feOffset dy="8"/>
<feGaussianBlur stdDeviation="9"/>
<feComposite in2="hardAlpha" operator="arithmetic" k2="-1" k3="1"/>
<feColorMatrix type="matrix" values="0 0 0 0 0.388235 0 0 0 0 0.4 0 0 0 0 0.945098 0 0 0 0.9 0"/>
<feBlend mode="normal" in2="shape" result="effect1_innerShadow_4633_10153"/>
</filter>
</defs>
</svg>
